<?xml version="1.0" encoding="UTF-8" standalone="no"?>
<!DOCTYPE svg PUBLIC "-//W3C//DTD SVG 1.1//EN" "http://www.w3.org/Graphics/SVG/1.1/DTD/svg11.dtd">
<svg xmlns="http://www.w3.org/2000/svg" xmlns:dc="http://purl.org/dc/elements/1.1/" version="1.1" xmlns:xl="http://www.w3.org/1999/xlink" viewBox="127.71875 498.23047 609.32096 273.26953" width="609.32096" height="273.26953">
  <defs/>
  <g id="Canvas_1" stroke-dasharray="none" stroke-opacity="1" fill="none" fill-opacity="1" stroke="none">
    <title>Canvas 1</title>
    <g id="Canvas_1_Layer_1">
      <title>Layer 1</title>
      <g id="Graphic_37">
        <rect x="127.71875" y="612.3001" width="609.32096" height="159.19991"/>
      </g>
      <g id="Graphic_36">
        <rect x="143.44316" y="627.0232" width="28.828088" height="134.30737"/>
      </g>
      <g id="Graphic_35">
        <rect x="180.13346" y="627.0232" width="28.828088" height="134.30737"/>
      </g>
      <g id="Graphic_34">
        <rect x="216.82375" y="627.0232" width="28.828088" height="134.30737"/>
      </g>
      <g id="Graphic_33">
        <rect x="253.51404" y="627.0232" width="28.828088" height="134.30737"/>
      </g>
      <g id="Graphic_32">
        <rect x="290.20434" y="627.0232" width="28.828088" height="134.30737"/>
      </g>
      <g id="Graphic_31">
        <rect x="326.89463" y="627.0232" width="28.828088" height="134.30737"/>
      </g>
      <g id="Graphic_30">
        <rect x="363.58493" y="627.0232" width="28.828088" height="134.30737"/>
      </g>
      <g id="Graphic_29">
        <rect x="400.2752" y="627.0232" width="28.828088" height="134.30737"/>
      </g>
      <g id="Graphic_28">
        <rect x="436.9655" y="627.0232" width="28.828088" height="134.30737"/>
      </g>
      <g id="Graphic_27">
        <rect x="473.6558" y="627.0232" width="28.828088" height="134.30737"/>
      </g>
      <g id="Graphic_26">
        <rect x="510.3461" y="627.0232" width="28.828088" height="134.30737"/>
      </g>
      <g id="Graphic_25">
        <rect x="547.0364" y="627.0232" width="28.828088" height="134.30737"/>
      </g>
      <g id="Graphic_24">
        <rect x="583.7267" y="627.0232" width="28.828088" height="134.30737"/>
      </g>
      <g id="Graphic_23">
        <rect x="620.417" y="627.0232" width="28.828088" height="134.30737"/>
      </g>
      <g id="Graphic_22">
        <rect x="657.1073" y="627.0232" width="28.828088" height="134.30737"/>
      </g>
      <g id="Graphic_21">
        <rect x="693.7976" y="627.0232" width="28.828088" height="134.30737"/>
      </g>
      <g id="Graphic_7">
        <text transform="translate(148.44316 503.23047)" fill="#b1001c">
          <tspan font-family="Chalkduster" font-size="101" fill="#b1001c" x="0" y="99" xml:space="preserve">Deci</tspan>
        </text>
      </g>
      <g id="Graphic_6">
        <text transform="translate(324.03242 632.0232)" fill="#f29303">
          <tspan font-family="Chalkduster" font-size="101" fill="#f29303" x="0" y="99" xml:space="preserve">Collab</tspan>
        </text>
      </g>
    </g>
  </g>
</svg>
